# xmcd
#
# Track frame offsets:
#  150
#  15727
#  33612
#  50805
#  70438
#  86781
#  102480
#  120865
#  137240
#  154065
#  170300
#  199399
#
# Disc length: 2895 seconds
#
# Revision: 0
# Processed by: cddbd v1.5.1PL2 Copyright (c) Steve Scherf et al.
# Submitted via: Collectorz.com_Music_Collector 6.9
#
DISCID=ac0b4d0c
DTITLE=SHeDAISY - Sweet Right Here
DYEAR=2004
DGENRE=Country
TTITLE0=Passenger Seat
TTITLE1=5432 Run
TTITLE2=360 Degrees Of You
TTITLE3=Love Goes On
TTITLE4=I Dare You
TTITLE5=Good Together (Bucket And Chicken)
TTITLE6=Come Home Soon
TTITLE7=Don't Worry 'bout A Thing
TTITLE8=Without A Sound
TTITLE9=Borrowed Home
TTITLE10=Woman's Work
TTITLE11=He's A Hero
EXTD=
EXTT0=
EXTT1=
EXTT2=
EXTT3=
EXTT4=
EXTT5=
EXTT6=
EXTT7=
EXTT8=
EXTT9=
EXTT10=
EXTT11=
PLAYORDER=
